<?xml version="1.0" standalone="no"?>
<!DOCTYPE svg PUBLIC "-//W3C//DTD SVG 20010904//EN"
 "http://www.w3.org/TR/2001/REC-SVG-20010904/DTD/svg10.dtd">
<svg version="1.0" xmlns="http://www.w3.org/2000/svg"
 width="1408.000000pt" height="768.000000pt" viewBox="0 0 1408.000000 768.000000"
 preserveAspectRatio="xMidYMid meet">

<g transform="translate(0.000000,768.000000) scale(0.100000,-0.100000)"
fill="#000000" stroke="none">
<path d="M3077 5660 c-143 -45 -233 -156 -252 -310 -15 -119 5 -169 221 -575
58 -110 151 -285 206 -390 56 -104 138 -260 183 -345 247 -463 390 -735 433
-817 26 -51 49 -93 52 -93 3 0 14 17 25 37 11 21 46 72 78 115 l57 78 -25 50
c-14 28 -28 50 -30 50 -3 0 4 -18 15 -40 25 -49 25 -66 0 -73 -11 -3 -18 -1
-15 3 5 8 -204 413 -450 870 -360 669 -531 1002 -540 1052 -8 42 10 114 29
121 12 5 12 1 0 -28 -8 -19 -14 -46 -14 -60 0 -26 91 -224 114 -247 6 -7 43
-71 80 -143 158 -300 235 -444 268 -505 20 -36 58 -108 85 -160 28 -52 85
-158 128 -235 42 -77 99 -184 126 -237 27 -54 51 -98 54 -98 8 0 -92 195 -280
550 -96 179 -257 485 -359 680 -212 404 -214 410 -152 478 l34 37 389 0 388 0
65 -32 c36 -18 82 -49 103 -70 32 -34 220 -377 405 -740 20 -40 39 -73 42 -73
10 1 140 243 140 261 0 10 -4 21 -10 24 -6 3 -7 -1 -4 -9 3 -9 -5 -29 -19 -46
-14 -16 -42 -57 -62 -90 -22 -36 -41 -58 -46 -53 -5 5 -31 49 -57 99 -27 49
-83 152 -124 229 -42 77 -96 177 -120 223 -25 45 -48 79 -52 75 -4 -4 -4 -1
-1 8 9 24 -69 123 -128 162 -75 50 -134 66 -287 76 l-135 9 155 -2 c85 -1 164
-6 174 -11 14 -6 17 -5 12 3 -4 7 -15 12 -26 12 -13 0 -17 7 -16 25 0 14 4 25
7 25 4 0 9 9 12 19 3 14 11 18 25 14 11 -2 23 1 27 8 5 7 4 10 -2 6 -6 -4 -19
1 -29 9 -18 14 -16 15 20 10 52 -7 40 2 -25 20 -33 8 -102 14 -175 14 -66 0
-237 3 -380 8 l-259 7 175 6 c344 13 545 22 549 25 2 2 -164 4 -370 3 -336 0
-380 -2 -432 -19z m838 -160 c3 -5 -1 -10 -9 -10 -9 0 -16 5 -16 10 0 6 4 10
9 10 6 0 13 -4 16 -10z m-635 -1070 c6 -11 8 -20 6 -20 -3 0 -10 9 -16 20 -6
11 -8 20 -6 20 3 0 10 -9 16 -20z m80 -150 c6 -11 8 -20 6 -20 -3 0 -10 9 -16
20 -6 11 -8 20 -6 20 3 0 10 -9 16 -20z"/>
<path d="M6155 5669 c-208 -30 -412 -166 -542 -362 -27 -40 -233 -395 -458
-790 -294 -515 -419 -725 -440 -740 -26 -19 -47 -22 -153 -26 -158 -4 -206 3
-242 37 -16 16 -164 284 -349 635 -177 335 -321 610 -321 613 0 9 132 4 150
-6 10 -5 54 -78 98 -162 126 -243 282 -539 312 -593 15 -27 55 -104 90 -170
74 -140 101 -180 138 -199 71 -36 159 -27 212 22 16 15 136 218 268 452 585
1038 633 1116 750 1220 l56 50 -145 0 c-79 0 -161 -5 -181 -10 -51 -14 -87
-60 -188 -237 -46 -81 -184 -321 -305 -533 -122 -212 -254 -445 -295 -517 -41
-73 -77 -133 -80 -133 -3 0 -118 215 -255 477 -258 493 -281 529 -360 568 -37
18 -65 20 -362 23 -178 1 -323 -1 -323 -5 0 -4 42 -86 94 -182 93 -174 436
-821 649 -1226 126 -238 165 -288 266 -338 l66 -32 220 0 220 0 67 33 c94 46
136 98 267 333 63 112 139 247 170 299 69 119 302 531 452 799 103 185 122
213 199 291 55 56 105 95 141 113 106 52 141 57 447 57 223 0 283 3 279 13 -3
9 -73 12 -308 12 -339 0 -339 0 -475 -80 -48 -28 -53 -30 -29 -9 43 37 161 92
223 104 29 5 157 13 285 16 245 7 312 14 134 14 -58 0 -108 4 -112 10 -3 5
-13 6 -22 3 -15 -6 -16 -5 -3 9 13 14 16 14 26 -1 10 -13 11 -11 7 11 -3 15
-10 26 -17 25 -6 -1 -10 4 -8 11 1 6 -4 12 -11 12 -18 0 -18 28 0 34 9 4 11 1
7 -7 -6 -9 -4 -9 7 -1 8 6 39 12 69 13 30 1 57 5 60 8 3 3 -103 3 -235 0 -273
-5 -292 -8 -442 -87 -51 -27 -93 -47 -93 -45 0 8 133 87 190 113 97 44 79 39
250 61 l65 8 -60 1 c-33 0 -87 -4 -120 -9z m-530 -55 c-11 -8 -26 -12 -33 -9
-8 3 -45 5 -83 5 -39 0 -69 4 -69 10 0 6 41 10 103 10 93 -1 100 -2 82 -16z
m-270 -94 c-8 -14 4 -52 15 -45 5 3 11 1 15 -5 3 -5 14 -10 23 -9 11 0 12 2 4
6 -6 2 -9 9 -6 15 4 7 14 1 25 -13 l17 -23 22 24 c26 31 23 25 -68 -127 -74
-123 -111 -200 -93 -188 6 3 11 3 11 -1 0 -22 -588 -1041 -643 -1115 -17 -23
-17 -23 -1 11 9 19 33 64 54 100 20 36 68 121 105 190 37 69 79 145 93 170 20
33 22 41 8 31 -15 -13 -19 -13 -27 0 -6 10 -9 10 -9 1 0 -8 -10 -5 -30 9 -16
12 -27 26 -24 30 3 5 -2 6 -10 3 -11 -4 -14 0 -11 15 8 43 12 49 -189 -291
-48 -82 -90 -148 -93 -148 -3 0 5 17 17 38 13 20 69 121 126 224 286 518 363
650 377 641 6 -4 7 -1 2 7 -5 8 1 20 16 32 13 11 18 17 11 13 -10 -5 -9 1 2
24 9 17 19 31 22 31 2 0 0 -9 -6 -20 -6 -11 -8 -20 -6 -20 3 0 13 14 22 31 8
17 11 28 5 25 -7 -4 -8 -1 -5 8 3 9 10 14 14 11 5 -3 53 69 107 160 54 91 102
165 106 165 5 0 5 -5 2 -10z m25 -20 c0 -5 -5 -10 -11 -10 -5 0 -7 5 -4 10 3
6 8 10 11 10 2 0 4 -4 4 -10z m-1468 -248 c62 -27 100 -76 173 -223 36 -71
115 -222 177 -336 201 -376 228 -430 243 -487 8 -32 15 -60 15 -64 0 -12 -130
228 -385 713 -81 154 -157 294 -171 311 -44 59 -93 74 -245 75 -168 2 -352 14
-269 19 30 1 107 6 170 10 154 10 241 5 292 -18z m1738 -2 c0 -5 -5 -10 -11
-10 -5 0 -7 5 -4 10 3 6 8 10 11 10 2 0 4 -4 4 -10z m-36 -69 c-4 -20 -1 -30
10 -34 11 -4 13 -1 9 11 -3 11 0 9 11 -5 11 -14 22 -20 33 -16 12 5 15 2 10
-9 -9 -24 4 -30 19 -10 31 40 10 -11 -44 -108 -134 -241 -173 -324 -104 -224
31 47 -19 -44 -177 -319 -235 -408 -312 -540 -324 -552 -15 -15 150 283 299
543 30 51 54 97 54 103 0 5 4 9 9 9 5 0 12 8 16 17 4 13 -2 10 -22 -8 -17 -17
-44 -29 -68 -32 -22 -3 -52 -7 -67 -10 -31 -5 -34 3 -17 36 6 12 7 18 1 12 -5
-5 -76 -122 -157 -260 -199 -337 -216 -352 -47 -40 69 128 213 379 386 675 66
112 105 168 72 103 -31 -62 -8 -33 45 57 29 50 55 90 56 90 1 0 0 -13 -3 -29z
m166 25 c0 -2 -8 -10 -17 -17 -16 -13 -17 -12 -4 4 13 16 21 21 21 13z m-36
-51 c-4 -8 -11 -15 -16 -15 -6 0 -5 6 2 15 7 8 14 15 16 15 2 0 1 -7 -2 -15z
m-2097 -187 c10 -21 23 -38 28 -38 6 0 35 -48 66 -108 66 -127 255 -480 344
-642 34 -63 95 -176 135 -250 40 -74 84 -145 98 -157 37 -31 101 -46 237 -53
l120 -6 -145 -2 c-156 -2 -206 6 -245 41 -14 12 -56 81 -93 152 -38 72 -181
342 -319 600 -138 259 -260 490 -272 515 l-22 45 25 -29 c13 -16 33 -47 43
-68z m443 -368 c17 -33 28 -60 25 -60 -2 0 -18 27 -35 60 -17 33 -28 60 -25
60 2 0 18 -27 35 -60z m-370 -150 c17 -33 28 -60 25 -60 -2 0 -18 27 -35 60
-17 33 -28 60 -25 60 2 0 18 -27 35 -60z m445 10 c14 -27 23 -50 20 -50 -2 0
-16 23 -30 50 -14 28 -23 50 -20 50 2 0 16 -22 30 -50z m85 -160 c11 -22 18
-40 15 -40 -2 0 -14 18 -25 40 -11 22 -18 40 -15 40 2 0 14 -18 25 -40z m790
-420 c-6 -11 -13 -20 -16 -20 -2 0 0 9 6 20 6 11 13 20 16 20 2 0 0 -9 -6 -20z"/>
<path d="M3928 5663 c7 -3 16 -2 19 1 4 3 -2 6 -13 5 -11 0 -14 -3 -6 -6z"/>
<path d="M4120 5365 c13 -14 26 -25 28 -25 3 0 -5 11 -18 25 -13 14 -26 25
-28 25 -3 0 5 -11 18 -25z"/>
<path d="M6178 5271 c-126 -40 -210 -118 -302 -275 -51 -87 -469 -821 -704
-1236 -145 -257 -199 -317 -333 -371 -46 -19 -82 -23 -254 -29 -169 -6 -208
-10 -254 -28 -125 -49 -207 -128 -285 -274 l-39 -73 53 -95 c29 -52 62 -108
73 -123 l19 -28 22 25 c12 14 46 72 76 128 68 126 127 190 192 206 26 7 111
12 190 12 175 0 255 16 367 71 108 53 216 155 287 271 28 46 131 225 229 398
173 306 393 695 538 950 109 191 157 233 282 244 28 3 137 5 243 5 l192 1 0
72 c0 83 -7 88 -12 8 l-3 -55 -85 5 -85 5 75 3 75 3 -3 80 -4 81 -257 -3
c-227 -4 -256 -2 -238 10 15 10 66 17 171 21 l151 7 -160 1 c-130 1 -171 -3
-217 -17z m-284 -343 c-53 -105 -591 -1039 -606 -1053 -6 -5 7 24 29 65 22 41
62 116 88 165 131 246 495 869 502 861 3 -2 -3 -19 -13 -38z m-169 -635 c-64
-117 -168 -293 -172 -293 -2 0 -2 3 0 8 52 95 201 352 204 352 3 0 -12 -30
-32 -67z m-465 -473 c-6 -11 -13 -20 -16 -20 -2 0 0 9 6 20 6 11 13 20 16 20
2 0 0 -9 -6 -20z m-375 -459 c-23 -23 -134 -41 -250 -41 -224 -1 -327 -27
-412 -104 -57 -51 -63 -45 -12 12 45 50 125 97 181 108 18 3 125 7 238 9 117
1 216 7 230 13 32 14 36 14 25 3z m180 -101 c-3 -6 -21 -17 -38 -26 -36 -19
-31 -9 10 17 34 21 36 22 28 9z m-81 -50 c-6 -6 -44 -23 -85 -37 -67 -24 -93
-27 -269 -33 -234 -7 -268 -18 -314 -99 -66 -116 -89 -151 -97 -146 -5 4 -9 3
-9 -2 0 -4 -10 -19 -21 -33 -22 -28 38 89 84 163 32 52 91 98 147 115 19 6
116 12 215 15 170 3 185 5 265 34 102 37 96 35 84 23z"/>
<path d="M6347 4927 c-77 -47 -107 -126 -82 -214 l16 -55 -88 -147 c-75 -123
-93 -146 -113 -147 -64 -2 -79 -6 -117 -31 -79 -51 -109 -152 -69 -235 l18
-37 -108 -181 -108 -180 -43 0 c-115 0 -200 -116 -172 -233 24 -100 130 -164
228 -137 53 14 116 70 131 116 14 41 9 115 -10 160 -13 30 -11 36 90 208 l103
176 49 0 c59 0 94 17 136 64 46 53 54 134 22 211 -12 29 -9 36 72 170 l85 140
60 6 c75 7 121 35 153 91 50 88 21 203 -63 253 -58 34 -136 35 -190 2z m183
-19 c48 -33 71 -69 76 -119 l4 -44 -10 38 c-19 74 -53 112 -119 134 -32 10
-33 12 -10 12 14 1 41 -9 59 -21z m-50 -98 c35 -35 21 -90 -26 -104 -29 -9
-74 28 -74 60 0 29 33 64 60 64 11 0 29 -9 40 -20z m-100 -95 c14 -19 14 -19
-2 -6 -10 7 -18 18 -18 24 0 6 1 8 3 6 1 -2 9 -13 17 -24z m-99 -207 c8 -15
13 -17 25 -8 13 11 -31 -73 -85 -163 l-23 -37 22 -52 c17 -39 20 -62 16 -92
-15 -89 -96 -154 -180 -143 -42 6 -43 5 -65 -33 -24 -44 -29 -48 -27 -24 0 10
-8 18 -23 21 -35 5 -36 8 -16 48 16 35 16 38 -5 88 -51 118 26 237 154 237
l45 0 61 94 c63 97 78 107 101 64z m-577 -954 c35 -34 8 -104 -40 -104 -22 0
-64 42 -64 64 0 46 71 74 104 40z"/>
<path d="M6019 4250 c-29 -17 -43 -66 -29 -100 15 -37 37 -50 84 -50 68 0 101
86 51 135 -25 26 -75 33 -106 15z m91 -30 c28 -28 25 -64 -6 -89 -15 -12 -32
-21 -39 -21 -24 0 -65 41 -65 66 0 31 33 64 65 64 14 0 34 -9 45 -20z"/>
<path d="M4616 4753 c-6 -14 -5 -15 5 -6 7 7 10 15 7 18 -3 3 -9 -2 -12 -12z"/>
<path d="M4576 4694 c-10 -25 1 -29 14 -5 6 12 7 21 1 21 -5 0 -12 -7 -15 -16z"/>
<path d="M4550 4639 c-7 -11 -10 -23 -7 -25 2 -2 9 7 15 21 14 30 7 33 -8 4z"/>
<path d="M9524 4510 c-60 -24 -112 -129 -99 -199 6 -32 247 -517 445 -893 l72
-138 32 48 33 47 -120 235 c-66 129 -172 334 -235 455 -96 182 -116 228 -118
270 l-3 50 8 -47 c8 -40 154 -338 167 -338 2 0 -32 72 -76 160 -119 237 -120
235 97 244 192 8 264 -2 305 -41 16 -16 72 -113 125 -217 70 -138 98 -185 104
-175 6 8 21 37 35 64 28 54 21 51 -18 -7 l-24 -37 -22 44 c-26 54 -20 60 7 8
l19 -38 17 37 c15 31 16 41 5 67 -7 17 -17 28 -23 24 -6 -4 -8 0 -4 11 4 11 3
15 -4 11 -6 -4 -10 -1 -8 6 3 26 -1 36 -16 36 -19 0 -19 -15 0 -47 17 -30 18
-40 5 -40 -5 0 -21 20 -36 45 -14 25 -28 45 -30 45 -6 0 25 -71 38 -87 6 -7 8
-16 5 -19 -3 -3 -33 48 -66 114 -34 66 -71 132 -82 146 -33 42 -77 60 -169 66
l-85 7 83 1 c86 2 120 -8 172 -51 14 -12 8 -4 -13 17 -20 21 -35 42 -32 47 3
5 -1 6 -9 3 -11 -4 -13 0 -9 14 3 14 11 18 26 15 22 -4 22 -4 2 9 -13 8 -68
14 -160 17 -93 3 -127 7 -100 12 24 4 -11 6 -90 7 -71 0 -139 -3 -151 -8z"/>
<path d="M10983 4501 c-69 -23 -120 -59 -173 -118 -23 -26 -133 -206 -244
-399 -110 -193 -208 -361 -216 -374 -14 -20 -27 -23 -95 -28 -58 -4 -74 -7
-60 -14 14 -6 10 -7 -14 -3 -19 3 -43 13 -53 22 -21 19 -332 622 -325 629 3 3
42 -67 86 -155 45 -89 84 -161 86 -161 3 0 -29 67 -70 150 -41 82 -75 152 -75
155 0 4 17 5 38 3 l37 -3 132 -255 c72 -140 140 -265 151 -277 22 -25 69 -31
102 -13 10 5 112 175 227 376 135 238 225 386 257 420 l48 54 -75 0 c-65 0
-80 -3 -101 -22 -20 -19 -229 -373 -373 -633 -30 -55 -31 -57 -7 -30 l26 30
-18 -34 c-11 -19 -23 -34 -29 -34 -5 0 -67 110 -136 244 -96 185 -133 248
-155 261 -23 14 -55 18 -144 20 l-115 2 125 6 125 5 -154 8 c-85 4 -157 4
-160 1 -6 -6 39 -95 278 -557 167 -322 156 -312 337 -312 121 0 122 0 160 31
35 28 102 140 416 698 49 88 119 159 180 186 43 19 80 25 198 30 l145 8 -155
-2 c-135 -2 -161 -5 -203 -24 -26 -12 -45 -18 -42 -13 3 6 30 19 61 30 45 17
78 21 184 21 l130 0 0 36 0 35 -152 -4 c-84 -2 -164 -7 -178 -12 -14 -4 -22
-4 -17 0 4 5 33 14 65 21 38 8 47 12 27 13 -16 0 -53 -8 -82 -18z m-223 -15
c-24 -14 -40 -13 -40 2 0 4 15 9 33 10 l32 2 -25 -14z m180 -21 c0 -2 -10 -9
-22 -15 -22 -11 -22 -10 -4 4 21 17 26 19 26 11z m-278 -67 c-3 -13 -1 -19 5
-15 6 4 2 -10 -8 -30 -11 -21 -19 -44 -19 -52 0 -23 -266 -501 -292 -526 -11
-10 2 15 87 170 22 39 32 64 23 57 -19 -15 -46 -6 -50 16 -2 10 -24 -17 -56
-70 -56 -92 -83 -123 -36 -40 143 248 253 420 297 463 28 27 51 49 53 49 1 0
0 -10 -4 -22z m137 -176 c-5 -13 -6 -28 -3 -34 4 -7 2 -8 -4 -4 -8 4 -12 0
-12 -11 0 -9 -34 -80 -76 -158 -80 -147 -118 -204 -65 -98 29 57 42 95 23 65
-10 -15 -52 -25 -52 -11 0 26 -22 -1 -84 -106 -70 -118 -99 -155 -49 -63 15
28 83 144 149 257 84 142 126 205 137 203 9 -1 19 3 23 10 12 19 23 -23 13
-50z m-209 -412 c-11 -22 -23 -40 -25 -40 -3 0 4 18 15 40 11 22 23 40 25 40
3 0 -4 -18 -15 -40z"/>
<path d="M10100 4425 c13 -14 26 -25 28 -25 3 0 -5 11 -18 25 -13 14 -26 25
-28 25 -3 0 5 -11 18 -25z"/>
<path d="M11024 4316 c-58 -25 -101 -84 -219 -293 -347 -616 -319 -570 -378
-604 -34 -18 -63 -24 -157 -29 -63 -4 -124 -11 -135 -15 -43 -18 -94 -67 -120
-118 l-29 -54 31 -53 c16 -30 34 -55 40 -57 5 -2 24 25 42 59 29 57 27 61 -7
11 -7 -10 -1 6 13 35 37 76 68 92 175 90 l85 -1 -92 -6 c-86 -6 -95 -8 -120
-36 l-28 -29 28 24 c25 22 40 25 145 30 212 11 243 38 434 380 271 486 294
524 328 544 25 15 58 20 156 24 95 4 122 8 114 17 -5 6 -7 15 -4 18 4 3 4 18
0 32 l-6 25 -133 1 c-85 1 -119 4 -97 9 l35 7 -35 1 c-19 1 -49 -5 -66 -12z
m-244 -385 c-72 -127 -134 -231 -136 -231 -6 0 9 27 156 287 57 101 105 181
108 178 2 -2 -55 -108 -128 -234z m-375 -543 c-11 -7 -72 -15 -135 -18 -111
-6 -142 -14 -185 -49 -19 -15 -19 -15 -5 3 29 37 89 55 185 57 50 0 101 5 115
9 37 12 48 11 25 -2z"/>
<path d="M9951 4318 c2 -2 18 -14 34 -28 l30 -25 -24 28 c-14 15 -29 27 -34
27 -6 0 -8 -1 -6 -2z"/>
<path d="M10207 4227 c-3 -8 1 -14 8 -14 7 0 11 6 8 14 -3 7 -6 13 -8 13 -2 0
-5 -6 -8 -13z"/>
<path d="M10090 4100 c33 -66 62 -120 65 -120 3 0 -22 54 -55 120 -33 66 -62
120 -65 120 -3 0 22 -54 55 -120z"/>
<path d="M11135 4158 c-35 -20 -45 -42 -43 -88 3 -37 -4 -57 -37 -112 -31 -54
-44 -68 -63 -68 -57 0 -102 -63 -82 -115 9 -23 3 -38 -42 -116 -42 -72 -57
-89 -76 -89 -13 0 -37 -13 -53 -29 -60 -61 -26 -161 56 -161 52 0 99 47 93 93
-3 18 -8 39 -12 47 -4 10 14 47 47 100 45 72 57 86 82 88 33 4 75 37 75 59 0
9 -9 4 -22 -11 -22 -24 -26 -25 -71 -15 -53 12 -72 35 -62 79 8 35 25 51 68
59 24 5 40 19 63 54 34 52 59 80 30 33 -13 -21 -15 -30 -6 -36 8 -5 7 -16 -6
-42 -13 -28 -14 -39 -5 -54 11 -18 12 -18 7 1 -4 13 8 44 32 85 31 55 42 65
67 68 45 4 72 21 85 53 13 31 6 84 -10 74 -5 -3 -7 0 -4 8 13 34 -68 60 -111
35z m64 -62 c15 -18 3 -46 -20 -46 -22 0 -34 22 -25 45 7 19 30 19 45 1z m-89
-146 c-6 -12 -14 -20 -17 -17 -2 3 1 14 8 26 17 26 24 19 9 -9z m-290 -465
c10 -12 10 -18 0 -30 -17 -20 -37 -19 -48 3 -19 37 21 60 48 27z"/>
<path d="M9765 3880 c25 -49 47 -90 50 -90 3 0 -15 41 -40 90 -25 50 -47 90
-50 90 -3 0 15 -40 40 -90z"/>
<path d="M10966 3821 c-19 -21 -13 -47 16 -62 16 -9 25 -7 41 10 18 17 19 24
9 46 -14 30 -42 33 -66 6z m49 -21 c0 -16 -6 -26 -19 -28 -24 -5 -37 17 -25
41 14 26 44 17 44 -13z"/>
<path d="M3921 3650 c14 -31 19 -36 19 -24 0 6 -7 19 -16 30 -14 18 -14 18 -3
-6z"/>
<path d="M10147 3589 c7 -7 15 -10 18 -7 3 3 -2 9 -12 12 -14 6 -15 5 -6 -5z"/>
<path d="M2577 2342 c-3 -4 33 -80 80 -168 47 -87 99 -188 115 -223 24 -50 38
-66 65 -77 36 -16 95 -10 111 10 24 29 232 439 232 455 0 8 -16 11 -52 9 l-53
-3 -91 -180 c-50 -98 -96 -181 -101 -182 -5 -2 -51 79 -103 179 l-95 183 -52
3 c-28 2 -54 -1 -56 -6z"/>
<path d="M3257 2344 c-4 -4 -7 -112 -7 -241 l0 -233 55 0 55 0 -2 238 -3 237
-45 3 c-25 2 -49 0 -53 -4z"/>
<path d="M3476 2335 c-21 -22 -26 -76 -23 -280 l2 -180 40 -6 c22 -4 45 -4 52
-2 10 4 13 50 13 190 0 162 2 184 15 173 8 -7 64 -81 125 -164 141 -195 144
-198 215 -200 49 -1 59 2 76 23 18 22 19 39 17 240 l-3 216 -50 0 -50 0 -3
-182 c-1 -101 -6 -183 -10 -183 -4 0 -14 10 -21 23 -39 62 -228 311 -249 328
-31 24 -123 26 -146 4z"/>
<path d="M4074 2336 c-3 -8 -4 -29 -2 -48 l3 -33 103 -3 102 -3 0 -188 0 -189
46 -4 c25 -2 47 -1 50 1 2 2 4 89 4 193 l0 188 99 0 c67 0 102 4 108 13 8 10
10 46 4 80 0 4 -116 7 -256 7 -210 0 -257 -2 -261 -14z"/>
<path d="M4673 2339 c-10 -10 -13 -72 -13 -240 0 -172 3 -228 13 -231 6 -3 30
-4 52 -4 l40 1 3 78 3 77 94 0 94 0 51 -74 c27 -41 58 -77 68 -80 27 -9 102
-4 102 7 0 5 -25 43 -55 85 l-55 77 34 17 c42 22 61 65 61 145 0 69 -20 107
-71 133 -39 20 -402 28 -421 9z m368 -108 c25 -30 24 -76 -1 -101 -18 -18 -33
-20 -145 -20 l-125 0 0 68 c0 38 3 72 7 76 5 4 61 6 126 4 111 -3 120 -5 138
-27z"/>
<path d="M5468 2339 c-20 -11 -51 -66 -171 -301 -47 -92 -83 -169 -79 -172 7
-8 61 -7 88 0 13 3 30 25 44 55 l23 49 154 0 153 0 24 -49 c25 -48 26 -49 77
-53 28 -1 53 0 56 4 7 12 -217 431 -244 456 -26 24 -93 30 -125 11z m115 -184
c26 -52 47 -97 47 -100 0 -3 -47 -5 -105 -5 -58 0 -105 1 -105 3 0 3 61 123
91 180 5 9 13 17 17 17 4 0 29 -43 55 -95z"/>
<path d="M5987 2338 c-48 -13 -93 -58 -107 -106 -5 -20 -10 -80 -10 -132 0
-122 22 -173 90 -207 41 -21 58 -23 222 -23 l178 0 0 45 c0 25 -3 45 -7 46 -5
0 -80 2 -168 4 -158 3 -160 3 -182 30 -20 23 -23 37 -23 114 0 136 -2 135 207
141 l168 5 0 45 0 45 -165 2 c-91 0 -182 -3 -203 -9z"/>
<path d="M6510 2328 c-71 -37 -81 -67 -78 -230 3 -120 6 -140 24 -165 42 -57
70 -63 269 -61 l180 3 0 40 0 40 -168 5 c-188 6 -197 9 -197 77 l0 33 174 0
174 0 4 35 c2 20 2 38 -1 40 -2 3 -82 5 -178 5 l-173 0 0 33 c0 64 21 72 201
75 l159 4 0 44 0 44 -173 0 c-159 0 -176 -2 -217 -22z"/>
</g>
</svg>
